<svg xmlns="http://www.w3.org/2000/svg" xmlns:xlink="http://www.w3.org/1999/xlink" contentStyleType="text/css" height="496px" preserveAspectRatio="none" style="width:803px;height:496px;background:#FFFFFF;" version="1.1" viewBox="0 0 803 496" width="803px" zoomAndPan="magnify"><title>Disaggregated Prefill/Decode &#8212; Request Flow</title><defs/><g><text fill="#000000" font-family="sans-serif" font-size="14" font-weight="bold" lengthAdjust="spacing" textLength="319.6293" x="243.2004" y="29.9659">Disaggregated Prefill/Decode &#8212; Request Flow</text><line style="stroke:#181818;stroke-width:0.5;stroke-dasharray:5.0,5.0;" x1="30" x2="30" y1="98.2038" y2="439.2639"/><line style="stroke:#181818;stroke-width:0.5;stroke-dasharray:5.0,5.0;" x1="119.6738" x2="119.6738" y1="98.2038" y2="439.2639"/><line style="stroke:#181818;stroke-width:0.5;stroke-dasharray:5.0,5.0;" x1="252.88" x2="252.88" y1="98.2038" y2="439.2639"/><line style="stroke:#181818;stroke-width:0.5;stroke-dasharray:5.0,5.0;" x1="434.2751" x2="434.2751" y1="98.2038" y2="439.2639"/><line style="stroke:#181818;stroke-width:0.5;stroke-dasharray:5.0,5.0;" x1="633.0593" x2="633.0593" y1="98.2038" y2="439.2639"/><rect fill="#90EE90" height="33.0679" rx="2.5" ry="2.5" style="stroke:#181818;stroke-width:0.5;" width="51.6738" x="5" y="64.1358"/><text fill="#000000" font-family="sans-serif" font-size="14" lengthAdjust="spacing" textLength="37.6738" x="12" y="86.1018">Client</text><rect fill="#90EE90" height="33.0679" rx="2.5" ry="2.5" style="stroke:#181818;stroke-width:0.5;" width="51.6738" x="5" y="438.2639"/><text fill="#000000" font-family="sans-serif" font-size="14" lengthAdjust="spacing" textLength="37.6738" x="12" y="460.2299">Client</text><rect fill="#ADD8E6" height="52.1358" rx="2.5" ry="2.5" style="stroke:#181818;stroke-width:0.5;" width="107.4776" x="66.6738" y="45.0679"/><text fill="#000000" font-family="sans-serif" font-size="14" lengthAdjust="spacing" textLength="93.4776" x="73.6738" y="67.0339">agentgateway</text><text fill="#000000" font-family="sans-serif" font-size="14" lengthAdjust="spacing" textLength="47.5578" x="96.6338" y="86.1018">(Envoy)</text><rect fill="#ADD8E6" height="52.1358" rx="2.5" ry="2.5" style="stroke:#181818;stroke-width:0.5;" width="107.4776" x="66.6738" y="438.2639"/><text fill="#000000" font-family="sans-serif" font-size="14" lengthAdjust="spacing" textLength="93.4776" x="73.6738" y="460.2299">agentgateway</text><text fill="#000000" font-family="sans-serif" font-size="14" lengthAdjust="spacing" textLength="47.5578" x="96.6338" y="479.2978">(Envoy)</text><rect fill="#ADD8E6" height="52.1358" rx="2.5" ry="2.5" style="stroke:#181818;stroke-width:0.5;" width="125.4396" x="190.88" y="45.0679"/><text fill="#000000" font-family="sans-serif" font-size="14" lengthAdjust="spacing" textLength="24.7239" x="241.2378" y="67.0339">EPP</text><text fill="#000000" font-family="sans-serif" font-size="14" lengthAdjust="spacing" textLength="111.4396" x="197.88" y="86.1018">(Endpoint Picker)</text><rect fill="#ADD8E6" height="52.1358" rx="2.5" ry="2.5" style="stroke:#181818;stroke-width:0.5;" width="125.4396" x="190.88" y="438.2639"/><text fill="#000000" font-family="sans-serif" font-size="14" lengthAdjust="spacing" textLength="24.7239" x="241.2378" y="460.2299">EPP</text><text fill="#000000" font-family="sans-serif" font-size="14" lengthAdjust="spacing" textLength="111.4396" x="197.88" y="479.2978">(Endpoint Picker)</text><rect fill="#DDA0DD" height="52.1358" rx="2.5" ry="2.5" style="stroke:#181818;stroke-width:0.5;" width="99.4837" x="385.2751" y="45.0679"/><text fill="#000000" font-family="sans-serif" font-size="14" lengthAdjust="spacing" textLength="75.9217" x="397.0561" y="67.0339">vLLM Prefill</text><text fill="#000000" font-family="sans-serif" font-size="14" lengthAdjust="spacing" textLength="85.4837" x="392.2751" y="86.1018">T4 &#183; dagobah</text><rect fill="#DDA0DD" height="52.1358" rx="2.5" ry="2.5" style="stroke:#181818;stroke-width:0.5;" width="99.4837" x="385.2751" y="438.2639"/><text fill="#000000" font-family="sans-serif" font-size="14" lengthAdjust="spacing" textLength="75.9217" x="397.0561" y="460.2299">vLLM Prefill</text><text fill="#000000" font-family="sans-serif" font-size="14" lengthAdjust="spacing" textLength="85.4837" x="392.2751" y="479.2978">T4 &#183; dagobah</text><rect fill="#FFD700" height="52.1358" rx="2.5" ry="2.5" style="stroke:#181818;stroke-width:0.5;" width="124.8095" x="571.0593" y="45.0679"/><text fill="#000000" font-family="sans-serif" font-size="14" lengthAdjust="spacing" textLength="87.9336" x="589.4973" y="67.0339">vLLM Decode</text><text fill="#000000" font-family="sans-serif" font-size="14" lengthAdjust="spacing" textLength="110.8095" x="578.0593" y="86.1018">RTX 3060 &#183; endor</text><rect fill="#FFD700" height="52.1358" rx="2.5" ry="2.5" style="stroke:#181818;stroke-width:0.5;" width="124.8095" x="571.0593" y="438.2639"/><text fill="#000000" font-family="sans-serif" font-size="14" lengthAdjust="spacing" textLength="87.9336" x="589.4973" y="460.2299">vLLM Decode</text><text fill="#000000" font-family="sans-serif" font-size="14" lengthAdjust="spacing" textLength="110.8095" x="578.0593" y="479.2978">RTX 3060 &#183; endor</text><polygon fill="#181818" points="108.4127,127.9098,118.4127,131.9098,108.4127,135.9098,112.4127,131.9098" style="stroke:#181818;stroke-width:1.0;"/><line style="stroke:#181818;stroke-width:1.0;" x1="30.8369" x2="114.4127" y1="131.9098" y2="131.9098"/><text fill="#000000" font-family="sans-serif" font-size="13" lengthAdjust="spacing" textLength="46.982" x="37.8369" y="126.1008">request</text><polygon fill="#181818" points="241.5998,159.6158,251.5998,163.6158,241.5998,167.6158,245.5998,163.6158" style="stroke:#181818;stroke-width:1.0;"/><line style="stroke:#181818;stroke-width:1.0;" x1="120.4127" x2="247.5998" y1="163.6158" y2="163.6158"/><text fill="#000000" font-family="sans-serif" font-size="13" lengthAdjust="spacing" textLength="109.1871" x="127.4127" y="157.8068">ext-proc: pick pod</text><polygon fill="#181818" points="423.0169,191.3218,433.0169,195.3218,423.0169,199.3218,427.0169,195.3218" style="stroke:#181818;stroke-width:1.0;"/><line style="stroke:#181818;stroke-width:1.0;" x1="253.5998" x2="429.0169" y1="195.3218" y2="195.3218"/><text fill="#000000" font-family="sans-serif" font-size="13" lengthAdjust="spacing" textLength="157.4172" x="260.5998" y="189.5128">1. prefill (process prompt)</text><line style="stroke:#181818;stroke-width:1.0;" x1="435.0169" x2="477.0169" y1="227.0278" y2="227.0278"/><line style="stroke:#181818;stroke-width:1.0;" x1="477.0169" x2="477.0169" y1="227.0278" y2="240.0278"/><line style="stroke:#181818;stroke-width:1.0;" x1="436.0169" x2="477.0169" y1="240.0278" y2="240.0278"/><polygon fill="#181818" points="446.0169,236.0278,436.0169,240.0278,446.0169,244.0278,442.0169,240.0278" style="stroke:#181818;stroke-width:1.0;"/><text fill="#000000" font-family="sans-serif" font-size="13" lengthAdjust="spacing" textLength="88.4781" x="442.0169" y="221.2188">build KV cache</text><polygon fill="#FF0000" points="621.4641,288.4398,631.4641,292.4398,621.4641,296.4398,625.4641,292.4398" style="stroke:#FF0000;stroke-width:1.0;"/><line style="stroke:#FF0000;stroke-width:1.0;" x1="435.0169" x2="627.4641" y1="292.4398" y2="292.4398"/><text fill="#000000" font-family="sans-serif" font-size="13" font-weight="bold" lengthAdjust="spacing" textLength="81.6433" x="442.0169" y="268.9248">RDMA / NIXL</text><text fill="#000000" font-family="sans-serif" font-size="13" lengthAdjust="spacing" textLength="174.4472" x="442.0169" y="286.6308">25GbE ConnectX-4 &#183; ~19.5ms</text><path d="M638,253.0278 L638,298.0278 L796,298.0278 L796,263.0278 L786,253.0278 L638,253.0278 " fill="#FEFFDD" style="stroke:#181818;stroke-width:0.5;"/><path d="M786,253.0278 L786,263.0278 L796,263.0278 L786,253.0278 " fill="#FEFFDD" style="stroke:#181818;stroke-width:0.5;"/><text fill="#000000" font-family="sans-serif" font-size="13" lengthAdjust="spacing" textLength="106.5351" x="644" y="271.9248">KV cache transfer</text><text fill="#000000" font-family="sans-serif" font-size="13" lengthAdjust="spacing" textLength="137.5661" x="644" y="289.6308">GPU-to-GPU zero-copy</text><polygon fill="#181818" points="621.4641,323.1459,631.4641,327.1459,621.4641,331.1459,625.4641,327.1459" style="stroke:#181818;stroke-width:1.0;"/><line style="stroke:#181818;stroke-width:1.0;" x1="253.5998" x2="627.4641" y1="327.1459" y2="327.1459"/><text fill="#000000" font-family="sans-serif" font-size="13" lengthAdjust="spacing" textLength="170.0921" x="260.5998" y="321.3369">2. decode (generate tokens)</text><line style="stroke:#181818;stroke-width:1.0;" x1="633.4641" x2="675.4641" y1="376.5579" y2="376.5579"/><line style="stroke:#181818;stroke-width:1.0;" x1="675.4641" x2="675.4641" y1="376.5579" y2="389.5579"/><line style="stroke:#181818;stroke-width:1.0;" x1="634.4641" x2="675.4641" y1="389.5579" y2="389.5579"/><polygon fill="#181818" points="644.4641,385.5579,634.4641,389.5579,644.4641,393.5579,640.4641,389.5579" style="stroke:#181818;stroke-width:1.0;"/><text fill="#000000" font-family="sans-serif" font-size="13" lengthAdjust="spacing" textLength="120.6401" x="640.4641" y="353.0429">FlashInfer attention</text><text fill="#000000" font-family="sans-serif" font-size="13" lengthAdjust="spacing" textLength="146.5101" x="640.4641" y="370.7489">on transferred KV cache</text><polygon fill="#181818" points="41.8369,417.2639,31.8369,421.2639,41.8369,425.2639,37.8369,421.2639" style="stroke:#181818;stroke-width:1.0;"/><line style="stroke:#181818;stroke-width:1.0;stroke-dasharray:2.0,2.0;" x1="35.8369" x2="632.4641" y1="421.2639" y2="421.2639"/><text fill="#000000" font-family="sans-serif" font-size="13" lengthAdjust="spacing" textLength="190.4632" x="47.8369" y="415.4549">stream tokens &#183; 96.8 tok/s peak</text><!--SRC=[TPB1Jjj048Rl-nGZSaaEJe0ML2mKgSN1GWsL5G6DX7jOUmTdbSsikxi1qWFY8VeklVTH-YGTsmag4ZsjTlxvPlwPtQ23GKYqbrNbi9815MGExxGnemHBgn3-FF-46NvVemzmRko34BLqGPUwbXJWp6ZaepVLrIAa3f5UoNkoOhcf-o0tEVKdT6ytWpsG7jAlM-gJMUDhQ99bRQwghUPxfiibkevYwR_O_NHwkNEVqzLx-FqBbAni8HSjosHcrgite6xKd6PNStYtVxpVa4ZAkfPBe9TQeuJO3XkDsNmChbkAu44umiPYmCSGrSwMCTJi6MghH6EOPHOFXb1tvg3V9A7t7B2hEWo4s2KLQsqKVBw1KfOBREEtlHcgRsD8OZWjnhFayYECuCl5V7ewAiOv7HwbnGJEB16MOHwrKpyTd0oFLbwG3GYksLRyKXE2a-JlqEMKPjTHi14Vy0ETZKfRRyJECRSx78BgFa6Vdn4TFoC4kqJo0v5iSywDz8iBudeWG-3rQ4ivMNffu_3VUHXZhbja33uubAjjpSRuoV7mGtCTyMfGBiLV]--></g></svg>