<svg xmlns="http://www.w3.org/2000/svg" xmlns:xlink="http://www.w3.org/1999/xlink" contentStyleType="text/css" height="1282px" preserveAspectRatio="none" style="width:1101px;height:1282px;background:#FEFEFE;" version="1.1" viewBox="0 0 1101 1282" width="1101px" zoomAndPan="magnify"><title>DRANet Architecture &#8212; RDMA Device Assignment for Kubernetes</title><defs/><g><rect fill="#FEFEFE" height="1282" style="stroke:none;stroke-width:1.0;" width="1101" x="0" y="0"/><text fill="#000000" font-family="Helvetica" font-size="22" font-weight="bold" lengthAdjust="spacing" textLength="709.1722" x="191.759" y="38.5181">DRANet Architecture &#8212; RDMA Device Assignment for Kubernetes</text><!--cluster cp--><g id="cluster_cp"><rect fill="#E8F5E9" height="457.89" rx="4" ry="4" style="stroke:#DEE2E6;stroke-width:1.0;" width="510" x="12" y="95.7241"/><text fill="#000000" font-family="Helvetica" font-size="11" font-weight="bold" lengthAdjust="spacing" textLength="74.0625" x="229.9688" y="109.483">Control Plane</text></g><!--cluster dra_api--><g id="cluster_dra_api"><rect fill="#FFFFFF" height="108.96" rx="4" ry="4" style="stroke:#DEE2E6;stroke-width:1.0;" width="462" x="36" y="136.7241"/><text fill="#000000" font-family="Helvetica" font-size="11" font-weight="bold" lengthAdjust="spacing" textLength="88.4202" x="222.7899" y="150.483">DRA API Objects</text></g><!--cluster node_endor--><g id="cluster_node_endor"><rect fill="#FFF3E0" height="549.36" rx="4" ry="4" style="stroke:#DEE2E6;stroke-width:1.0;" width="491" x="31" y="624.1041"/><text fill="#000000" font-family="Helvetica" font-size="11" font-weight="bold" lengthAdjust="spacing" textLength="68.194" x="242.403" y="637.863">Node: endor</text></g><!--cluster decode_pod--><g id="cluster_decode_pod"><rect fill="#E3F2FD" height="139.94" rx="4" ry="4" style="stroke:#DEE2E6;stroke-width:1.0;" width="427" x="63" y="1001.5241"/><text fill="#000000" font-family="Helvetica" font-size="11" font-weight="bold" lengthAdjust="spacing" textLength="65.1663" x="243.9168" y="1015.283">Decode Pod</text></g><!--cluster node_lab--><g id="cluster_node_lab"><rect fill="#FFF3E0" height="485.87" rx="4" ry="4" style="stroke:#DEE2E6;stroke-width:1.0;" width="395" x="546" y="278.6841"/><text fill="#000000" font-family="Helvetica" font-size="11" font-weight="bold" lengthAdjust="spacing" textLength="84.0064" x="701.4968" y="292.443">Node: dagobah</text></g><!--cluster prefill_pod--><g id="cluster_prefill_pod"><rect fill="#E3F2FD" height="123.94" rx="4" ry="4" style="stroke:#DEE2E6;stroke-width:1.0;" width="347" x="570" y="616.6141"/><text fill="#000000" font-family="Helvetica" font-size="11" font-weight="bold" lengthAdjust="spacing" textLength="56.0721" x="715.4639" y="630.373">Prefill Pod</text></g><!--entity sched--><g id="elem_sched"><rect fill="#C8E6C9" height="59.9638" rx="4" ry="4" style="stroke:#6C757D;stroke-width:1.0;" width="127.7904" x="341.1" y="477.6541"/><rect fill="#C8E6C9" height="10" style="stroke:#6C757D;stroke-width:1.0;" width="15" x="448.8904" y="482.6541"/><rect fill="#C8E6C9" height="2" style="stroke:#6C757D;stroke-width:1.0;" width="4" x="446.8904" y="484.6541"/><rect fill="#C8E6C9" height="2" style="stroke:#6C757D;stroke-width:1.0;" width="4" x="446.8904" y="488.6541"/><text fill="#000000" font-family="Helvetica" font-size="11" lengthAdjust="spacing" textLength="79.8814" x="356.1" y="509.413">kube-scheduler</text><text fill="#000000" font-family="Helvetica" font-size="11" lengthAdjust="spacing" textLength="87.7904" x="356.1" y="524.3949">(topology-aware)</text></g><!--entity api--><g id="elem_api"><rect fill="#C8E6C9" height="44.9819" rx="4" ry="4" style="stroke:#6C757D;stroke-width:1.0;" width="117.3074" x="321.35" y="319.1741"/><rect fill="#C8E6C9" height="10" style="stroke:#6C757D;stroke-width:1.0;" width="15" x="418.6574" y="324.1741"/><rect fill="#C8E6C9" height="2" style="stroke:#6C757D;stroke-width:1.0;" width="4" x="416.6574" y="326.1741"/><rect fill="#C8E6C9" height="2" style="stroke:#6C757D;stroke-width:1.0;" width="4" x="416.6574" y="330.1741"/><text fill="#000000" font-family="Helvetica" font-size="11" lengthAdjust="spacing" textLength="77.3074" x="336.35" y="350.933">kube-apiserver</text></g><!--entity dc--><g id="elem_dc"><rect fill="#FFFFFF" height="59.9638" rx="4" ry="4" style="stroke:#6C757D;stroke-width:1.0;" width="114.5245" x="51.74" y="169.7241"/><rect fill="#FFFFFF" height="10" style="stroke:#6C757D;stroke-width:1.0;" width="15" x="146.2645" y="174.7241"/><rect fill="#FFFFFF" height="2" style="stroke:#6C757D;stroke-width:1.0;" width="4" x="144.2645" y="176.7241"/><rect fill="#FFFFFF" height="2" style="stroke:#6C757D;stroke-width:1.0;" width="4" x="144.2645" y="180.7241"/><text fill="#000000" font-family="Helvetica" font-size="11" lengthAdjust="spacing" textLength="60.6426" x="66.74" y="201.483">DeviceClass</text><text fill="#000000" font-family="Helvetica" font-size="11" lengthAdjust="spacing" textLength="74.5245" x="66.74" y="216.4649">(CEL selectors)</text></g><!--entity rs--><g id="elem_rs"><rect fill="#FFFFFF" height="59.9638" rx="4" ry="4" style="stroke:#6C757D;stroke-width:1.0;" width="129.8804" x="201.06" y="169.7241"/><rect fill="#FFFFFF" height="10" style="stroke:#6C757D;stroke-width:1.0;" width="15" x="310.9404" y="174.7241"/><rect fill="#FFFFFF" height="2" style="stroke:#6C757D;stroke-width:1.0;" width="4" x="308.9404" y="176.7241"/><rect fill="#FFFFFF" height="2" style="stroke:#6C757D;stroke-width:1.0;" width="4" x="308.9404" y="180.7241"/><text fill="#000000" font-family="Helvetica" font-size="11" lengthAdjust="spacing" textLength="70.9935" x="216.06" y="201.483">ResourceSlice</text><text fill="#000000" font-family="Helvetica" font-size="11" lengthAdjust="spacing" textLength="89.8804" x="216.06" y="216.4649">(discovered NICs)</text></g><!--entity rc--><g id="elem_rc"><rect fill="#FFFFFF" height="59.9638" rx="4" ry="4" style="stroke:#6C757D;stroke-width:1.0;" width="116.8784" x="365.56" y="169.7241"/><rect fill="#FFFFFF" height="10" style="stroke:#6C757D;stroke-width:1.0;" width="15" x="462.4384" y="174.7241"/><rect fill="#FFFFFF" height="2" style="stroke:#6C757D;stroke-width:1.0;" width="4" x="460.4384" y="176.7241"/><rect fill="#FFFFFF" height="2" style="stroke:#6C757D;stroke-width:1.0;" width="4" x="460.4384" y="180.7241"/><text fill="#000000" font-family="Helvetica" font-size="11" lengthAdjust="spacing" textLength="76.8784" x="380.56" y="201.483">ResourceClaim</text><text fill="#000000" font-family="Helvetica" font-size="11" lengthAdjust="spacing" textLength="69.3985" x="380.56" y="216.4649">(pod request)</text></g><!--entity dranet_e--><g id="elem_dranet_e"><rect fill="#FFE0B2" height="59.9638" rx="4" ry="4" style="stroke:#6C757D;stroke-width:1.0;" width="100.3566" x="344.82" y="856.5541"/><rect fill="#FFE0B2" height="10" style="stroke:#6C757D;stroke-width:1.0;" width="15" x="425.1766" y="861.5541"/><rect fill="#FFE0B2" height="2" style="stroke:#6C757D;stroke-width:1.0;" width="4" x="423.1766" y="863.5541"/><rect fill="#FFE0B2" height="2" style="stroke:#6C757D;stroke-width:1.0;" width="4" x="423.1766" y="867.5541"/><text fill="#000000" font-family="Helvetica" font-size="11" lengthAdjust="spacing" textLength="40.4357" x="359.82" y="888.313">DRANet</text><text fill="#000000" font-family="Helvetica" font-size="11" lengthAdjust="spacing" textLength="60.3566" x="359.82" y="903.2949">DaemonSet</text></g><!--entity cri_e--><g id="elem_cri_e"><rect fill="#FFE0B2" height="59.9638" rx="4" ry="4" style="stroke:#6C757D;stroke-width:1.0;" width="103.7445" x="350.13" y="657.1041"/><rect fill="#FFE0B2" height="10" style="stroke:#6C757D;stroke-width:1.0;" width="15" x="433.8745" y="662.1041"/><rect fill="#FFE0B2" height="2" style="stroke:#6C757D;stroke-width:1.0;" width="4" x="431.8745" y="664.1041"/><rect fill="#FFE0B2" height="2" style="stroke:#6C757D;stroke-width:1.0;" width="4" x="431.8745" y="668.1041"/><text fill="#000000" font-family="Helvetica" font-size="11" lengthAdjust="spacing" textLength="56.0226" x="365.13" y="688.863">containerd</text><text fill="#000000" font-family="Helvetica" font-size="11" lengthAdjust="spacing" textLength="63.7445" x="365.13" y="703.8449">+ NRI plugin</text></g><!--entity cni_e--><g id="elem_cni_e"><rect fill="#FFE0B2" height="59.9638" rx="4" ry="4" style="stroke:#6C757D;stroke-width:1.0;" width="83.9557" x="220.02" y="856.5541"/><rect fill="#FFE0B2" height="10" style="stroke:#6C757D;stroke-width:1.0;" width="15" x="283.9757" y="861.5541"/><rect fill="#FFE0B2" height="2" style="stroke:#6C757D;stroke-width:1.0;" width="4" x="281.9757" y="863.5541"/><rect fill="#FFE0B2" height="2" style="stroke:#6C757D;stroke-width:1.0;" width="4" x="281.9757" y="867.5541"/><text fill="#000000" font-family="Helvetica" font-size="11" lengthAdjust="spacing" textLength="19.0409" x="235.02" y="888.313">CNI</text><text fill="#000000" font-family="Helvetica" font-size="11" lengthAdjust="spacing" textLength="43.9557" x="235.02" y="903.2949">(Flannel)</text></g><!--entity vllm_d--><g id="elem_vllm_d"><rect fill="#BBDEFB" height="59.9638" rx="4" ry="4" style="stroke:#6C757D;stroke-width:1.0;" width="94.0316" x="86.98" y="1050.0141"/><rect fill="#BBDEFB" height="10" style="stroke:#6C757D;stroke-width:1.0;" width="15" x="161.0116" y="1055.0141"/><rect fill="#BBDEFB" height="2" style="stroke:#6C757D;stroke-width:1.0;" width="4" x="159.0116" y="1057.0141"/><rect fill="#BBDEFB" height="2" style="stroke:#6C757D;stroke-width:1.0;" width="4" x="159.0116" y="1061.0141"/><text fill="#000000" font-family="Helvetica" font-size="11" lengthAdjust="spacing" textLength="27.0928" x="101.98" y="1081.773">vLLM</text><text fill="#000000" font-family="Helvetica" font-size="11" lengthAdjust="spacing" textLength="54.0316" x="101.98" y="1096.7549">(RTX 3060)</text></g><!--entity eth_d--><g id="elem_eth_d"><rect fill="#FFFFFF" height="59.9638" rx="4" ry="4" style="stroke:#6C757D;stroke-width:1.0;" width="92.8876" x="215.56" y="1050.0141"/><rect fill="#FFFFFF" height="10" style="stroke:#6C757D;stroke-width:1.0;" width="15" x="288.4476" y="1055.0141"/><rect fill="#FFFFFF" height="2" style="stroke:#6C757D;stroke-width:1.0;" width="4" x="286.4476" y="1057.0141"/><rect fill="#FFFFFF" height="2" style="stroke:#6C757D;stroke-width:1.0;" width="4" x="286.4476" y="1061.0141"/><text fill="#000000" font-family="Helvetica" font-size="11" lengthAdjust="spacing" textLength="23.2648" x="230.56" y="1081.773">eth0</text><text fill="#000000" font-family="Helvetica" font-size="11" lengthAdjust="spacing" textLength="52.8876" x="230.56" y="1096.7549">10.42.0.40</text></g><!--entity rdma_d--><g id="elem_rdma_d"><rect fill="#E1BEE7" height="74.9457" rx="4" ry="4" style="stroke:#6C757D;stroke-width:1.0;" width="103.7665" x="343.12" y="1042.5241"/><rect fill="#E1BEE7" height="10" style="stroke:#6C757D;stroke-width:1.0;" width="15" x="426.8865" y="1047.5241"/><rect fill="#E1BEE7" height="2" style="stroke:#6C757D;stroke-width:1.0;" width="4" x="424.8865" y="1049.5241"/><rect fill="#E1BEE7" height="2" style="stroke:#6C757D;stroke-width:1.0;" width="4" x="424.8865" y="1053.5241"/><text fill="#000000" font-family="Helvetica" font-size="11" lengthAdjust="spacing" textLength="63.7665" x="358.12" y="1074.283">enp65s0np0</text><text fill="#000000" font-family="Helvetica" font-size="11" lengthAdjust="spacing" textLength="40.3037" x="358.12" y="1089.2649">10.0.0.1</text><text fill="#000000" font-family="Helvetica" font-size="11" lengthAdjust="spacing" textLength="38.4777" x="358.12" y="1104.2468">(RDMA)</text></g><!--entity dranet_l--><g id="elem_dranet_l"><rect fill="#FFE0B2" height="59.9638" rx="4" ry="4" style="stroke:#6C757D;stroke-width:1.0;" width="100.3566" x="679.82" y="477.6541"/><rect fill="#FFE0B2" height="10" style="stroke:#6C757D;stroke-width:1.0;" width="15" x="760.1766" y="482.6541"/><rect fill="#FFE0B2" height="2" style="stroke:#6C757D;stroke-width:1.0;" width="4" x="758.1766" y="484.6541"/><rect fill="#FFE0B2" height="2" style="stroke:#6C757D;stroke-width:1.0;" width="4" x="758.1766" y="488.6541"/><text fill="#000000" font-family="Helvetica" font-size="11" lengthAdjust="spacing" textLength="40.4357" x="694.82" y="509.413">DRANet</text><text fill="#000000" font-family="Helvetica" font-size="11" lengthAdjust="spacing" textLength="60.3566" x="694.82" y="524.3949">DaemonSet</text></g><!--entity cri_l--><g id="elem_cri_l"><rect fill="#FFE0B2" height="59.9638" rx="4" ry="4" style="stroke:#6C757D;stroke-width:1.0;" width="103.7445" x="562.13" y="311.6841"/><rect fill="#FFE0B2" height="10" style="stroke:#6C757D;stroke-width:1.0;" width="15" x="645.8745" y="316.6841"/><rect fill="#FFE0B2" height="2" style="stroke:#6C757D;stroke-width:1.0;" width="4" x="643.8745" y="318.6841"/><rect fill="#FFE0B2" height="2" style="stroke:#6C757D;stroke-width:1.0;" width="4" x="643.8745" y="322.6841"/><text fill="#000000" font-family="Helvetica" font-size="11" lengthAdjust="spacing" textLength="56.0226" x="577.13" y="343.443">containerd</text><text fill="#000000" font-family="Helvetica" font-size="11" lengthAdjust="spacing" textLength="63.7445" x="577.13" y="358.4249">+ NRI plugin</text></g><!--entity cni_l--><g id="elem_cni_l"><rect fill="#FFE0B2" height="59.9638" rx="4" ry="4" style="stroke:#6C757D;stroke-width:1.0;" width="83.9557" x="815.02" y="477.6541"/><rect fill="#FFE0B2" height="10" style="stroke:#6C757D;stroke-width:1.0;" width="15" x="878.9757" y="482.6541"/><rect fill="#FFE0B2" height="2" style="stroke:#6C757D;stroke-width:1.0;" width="4" x="876.9757" y="484.6541"/><rect fill="#FFE0B2" height="2" style="stroke:#6C757D;stroke-width:1.0;" width="4" x="876.9757" y="488.6541"/><text fill="#000000" font-family="Helvetica" font-size="11" lengthAdjust="spacing" textLength="19.0409" x="830.02" y="509.413">CNI</text><text fill="#000000" font-family="Helvetica" font-size="11" lengthAdjust="spacing" textLength="43.9557" x="830.02" y="524.3949">(Flannel)</text></g><!--entity vllm_p--><g id="elem_vllm_p"><rect fill="#BBDEFB" height="59.9638" rx="4" ry="4" style="stroke:#6C757D;stroke-width:1.0;" width="67.0928" x="586.45" y="657.1041"/><rect fill="#BBDEFB" height="10" style="stroke:#6C757D;stroke-width:1.0;" width="15" x="633.5428" y="662.1041"/><rect fill="#BBDEFB" height="2" style="stroke:#6C757D;stroke-width:1.0;" width="4" x="631.5428" y="664.1041"/><rect fill="#BBDEFB" height="2" style="stroke:#6C757D;stroke-width:1.0;" width="4" x="631.5428" y="668.1041"/><text fill="#000000" font-family="Helvetica" font-size="11" lengthAdjust="spacing" textLength="27.0928" x="601.45" y="688.863">vLLM</text><text fill="#000000" font-family="Helvetica" font-size="11" lengthAdjust="spacing" textLength="19.0078" x="601.45" y="703.8449">(T4)</text></g><!--entity eth_p--><g id="elem_eth_p"><rect fill="#FFFFFF" height="59.9638" rx="4" ry="4" style="stroke:#6C757D;stroke-width:1.0;" width="92.8876" x="808.56" y="657.1041"/><rect fill="#FFFFFF" height="10" style="stroke:#6C757D;stroke-width:1.0;" width="15" x="881.4476" y="662.1041"/><rect fill="#FFFFFF" height="2" style="stroke:#6C757D;stroke-width:1.0;" width="4" x="879.4476" y="664.1041"/><rect fill="#FFFFFF" height="2" style="stroke:#6C757D;stroke-width:1.0;" width="4" x="879.4476" y="668.1041"/><text fill="#000000" font-family="Helvetica" font-size="11" lengthAdjust="spacing" textLength="23.2648" x="823.56" y="688.863">eth0</text><text fill="#000000" font-family="Helvetica" font-size="11" lengthAdjust="spacing" textLength="52.8876" x="823.56" y="703.8449">10.42.1.62</text></g><!--entity rdma_p--><g id="elem_rdma_p"><rect fill="#E1BEE7" height="74.9457" rx="4" ry="4" style="stroke:#6C757D;stroke-width:1.0;" width="84.4176" x="688.79" y="649.6141"/><rect fill="#E1BEE7" height="10" style="stroke:#6C757D;stroke-width:1.0;" width="15" x="753.2076" y="654.6141"/><rect fill="#E1BEE7" height="2" style="stroke:#6C757D;stroke-width:1.0;" width="4" x="751.2076" y="656.6141"/><rect fill="#E1BEE7" height="2" style="stroke:#6C757D;stroke-width:1.0;" width="4" x="751.2076" y="660.6141"/><text fill="#000000" font-family="Helvetica" font-size="11" lengthAdjust="spacing" textLength="44.4176" x="703.79" y="681.373">ens1np0</text><text fill="#000000" font-family="Helvetica" font-size="11" lengthAdjust="spacing" textLength="40.3037" x="703.79" y="696.3549">10.0.0.2</text><text fill="#000000" font-family="Helvetica" font-size="11" lengthAdjust="spacing" textLength="38.4777" x="703.79" y="711.3368">(RDMA)</text></g><!--entity dac--><g id="elem_dac"><rect fill="#F3E5F5" height="49.9638" rx="4" ry="4" style="stroke:#DEE2E6;stroke-width:1.0;" width="96.3835" x="609.81" y="861.5541"/><text fill="#000000" font-family="Helvetica" font-size="11" lengthAdjust="spacing" textLength="58.3436" x="619.81" y="883.313">25GbE DAC</text><text fill="#000000" font-family="Helvetica" font-size="11" lengthAdjust="spacing" textLength="76.3835" x="619.81" y="898.2949">Direct Connect</text></g><g id="elem_GMN42"><path d="M538.36,183.7241 L538.36,215.6879 A4,4 0 0 0 542.36,219.6879 L649.6403,219.6879 A4,4 0 0 0 653.6403,215.6879 L653.6403,189.7241 L643.6403,179.7241 L542.36,179.7241 A4,4 0 0 0 538.36,183.7241 " fill="#FFFFFF" style="stroke:#000000;stroke-width:1.0;"/><path d="M643.6403,179.7241 L643.6403,187.7241 A2,2 0 0 0 645.6403,189.7241 L653.6403,189.7241 L643.6403,179.7241 " fill="#FFFFFF" style="stroke:#000000;stroke-width:1.0;"/><text fill="#000000" font-family="Helvetica" font-size="11" lengthAdjust="spacing" textLength="92.2233" x="544.36" y="196.483">CEL: rdma == true</text><text fill="#000000" font-family="Helvetica" font-size="11" lengthAdjust="spacing" textLength="94.2803" x="544.36" y="211.4649">&amp;&amp; virtual == false</text></g><g id="elem_GMN45"><path d="M413.18,1224.4641 L413.18,1271.4098 A4,4 0 0 0 417.18,1275.4098 L546.8232,1275.4098 A4,4 0 0 0 550.8232,1271.4098 L550.8232,1230.4641 L540.8232,1220.4641 L417.18,1220.4641 A4,4 0 0 0 413.18,1224.4641 " fill="#FFFFFF" style="stroke:#000000;stroke-width:1.0;"/><path d="M540.8232,1220.4641 L540.8232,1228.4641 A2,2 0 0 0 542.8232,1230.4641 L550.8232,1230.4641 L540.8232,1220.4641 " fill="#FFFFFF" style="stroke:#000000;stroke-width:1.0;"/><text fill="#000000" font-family="Helvetica" font-size="11" lengthAdjust="spacing" textLength="116.6432" x="419.18" y="1237.223">Both interfaces visible:</text><text fill="#000000" font-family="Helvetica" font-size="11" lengthAdjust="spacing" textLength="101.8813" x="419.18" y="1252.2049">eth0 (service traffic)</text><text fill="#000000" font-family="Helvetica" font-size="11" lengthAdjust="spacing" textLength="105.1042" x="419.18" y="1267.1868">enp65s0np0 (RDMA)</text></g><g id="elem_GMN48"><path d="M957.3,325.6841 L957.3,357.6479 A4,4 0 0 0 961.3,361.6479 L1090.6902,361.6479 A4,4 0 0 0 1094.6902,357.6479 L1094.6902,331.6841 L1084.6902,321.6841 L961.3,321.6841 A4,4 0 0 0 957.3,325.6841 " fill="#FFFFFF" style="stroke:#000000;stroke-width:1.0;"/><path d="M1084.6902,321.6841 L1084.6902,329.6841 A2,2 0 0 0 1086.6902,331.6841 L1094.6902,331.6841 L1084.6902,321.6841 " fill="#FFFFFF" style="stroke:#000000;stroke-width:1.0;"/><text fill="#000000" font-family="Helvetica" font-size="11" lengthAdjust="spacing" textLength="116.3902" x="963.3" y="338.443">Selects NIC by ifName,</text><text fill="#000000" font-family="Helvetica" font-size="11" lengthAdjust="spacing" textLength="112.0232" x="963.3" y="353.4249">configures IP address</text></g><!--link api to sched--><g id="link_api_sched"><path d="M379.28,364.5941 C378.99,385.9741 379.63,419.3241 385,447.6541 C386.87,457.5341 388.0446,462.3486 391.3046,471.6986 " fill="none" id="api-to-sched" style="stroke:#1976D2;stroke-width:1.0;"/><polygon fill="#1976D2" points="393.28,477.3641,394.094,467.5489,391.6339,472.6428,386.54,470.1827,393.28,477.3641" style="stroke:#1976D2;stroke-width:1.0;"/><text fill="#000000" font-family="Helvetica" font-size="11" lengthAdjust="spacing" textLength="71.2685" x="387.5895" y="421.913">schedule with</text><text fill="#000000" font-family="Helvetica" font-size="11" lengthAdjust="spacing" textLength="74.4475" x="386" y="436.8949">topology hints</text></g><!--link dc to api--><g id="link_dc_api"><path d="M147.36,229.9841 C158.84,238.1441 171.66,246.6841 184,253.6841 C229,279.2341 277.3558,300.4392 317.2358,316.5292 " fill="none" id="dc-to-api" style="stroke:#1976D2;stroke-width:1.0;"/><polygon fill="#1976D2" points="322.8,318.7741,315.9503,311.6972,318.1632,316.9033,312.9571,319.1162,322.8,318.7741" style="stroke:#1976D2;stroke-width:1.0;"/></g><!--link rs to api--><g id="link_rs_api"><path d="M294.01,229.9041 C303.17,239.7841 313.24,251.0241 322,261.6841 C337.34,280.3441 350.0552,297.6986 361.4152,313.8286 " fill="none" id="rs-to-api" style="stroke:#1976D2;stroke-width:1.0;"/><polygon fill="#1976D2" points="364.87,318.7341,362.9581,309.0726,361.991,314.6462,356.4174,313.6791,364.87,318.7341" style="stroke:#1976D2;stroke-width:1.0;"/></g><!--link rc to api--><g id="link_rc_api"><path d="M414.78,230.0441 C406.46,256.4941 396.2193,289.0803 388.7093,312.9703 " fill="none" id="rc-to-api" style="stroke:#1976D2;stroke-width:1.0;"/><polygon fill="#1976D2" points="386.91,318.6941,393.4249,311.3079,388.4094,313.9242,385.7931,308.9088,386.91,318.6941" style="stroke:#1976D2;stroke-width:1.0;"/></g><!--link dranet_e to rs--><g id="link_dranet_e_rs"><path d="M360.09,856.2841 C321.89,820.7941 266,757.0841 266,688.0841 C266,340.6641 266,340.6641 266,340.6641 C266,302.3941 266,264.2341 266,235.9241 " fill="none" id="dranet_e-to-rs" style="stroke:#388E3C;stroke-width:1.0;stroke-dasharray:7.0,7.0;"/><polygon fill="#388E3C" points="266,229.9241,262,238.9241,266,234.9241,270,238.9241,266,229.9241" style="stroke:#388E3C;stroke-width:1.0;"/><text fill="#000000" font-family="Helvetica" font-size="11" lengthAdjust="spacing" textLength="38.0707" x="267.0385" y="504.893">publish</text><text fill="#000000" font-family="Helvetica" font-size="11" lengthAdjust="spacing" textLength="38.1477" x="267" y="519.8749">devices</text></g><!--link dranet_l to rs--><g id="link_dranet_l_rs"><path d="M734.42,477.4241 C740.28,426.3741 743.68,321.5041 683,270.6841 C654.42,246.7541 383.5,265.0441 348,253.6841 C331.86,248.5141 320.7552,242.7019 307.2052,233.3919 " fill="none" id="dranet_l-to-rs" style="stroke:#388E3C;stroke-width:1.0;stroke-dasharray:7.0,7.0;"/><polygon fill="#388E3C" points="302.26,229.9941,307.4126,238.3876,306.381,232.8256,311.943,231.794,302.26,229.9941" style="stroke:#388E3C;stroke-width:1.0;"/><text fill="#000000" font-family="Helvetica" font-size="11" lengthAdjust="spacing" textLength="38.0707" x="733.9585" y="338.923">publish</text><text fill="#000000" font-family="Helvetica" font-size="11" lengthAdjust="spacing" textLength="38.1477" x="733.92" y="353.9049">devices</text></g><!--link sched to cri_e--><g id="link_sched_cri_e"><path d="M404.5,537.9341 C403.95,570.8141 403.1503,617.8449 402.6003,650.7449 " fill="none" id="sched-to-cri_e" style="stroke:#388E3C;stroke-width:1.0;"/><polygon fill="#388E3C" points="402.5,656.7441,406.6499,647.8122,402.5836,651.7448,398.651,647.6785,402.5,656.7441" style="stroke:#388E3C;stroke-width:1.0;"/><text fill="#000000" font-family="Helvetica" font-size="11" lengthAdjust="spacing" textLength="85.5244" x="404.94" y="589.873">RunPodSandbox</text></g><!--link cri_e to dranet_e--><g id="link_cri_e_dranet_e"><path d="M400.97,717.2241 C399.64,754.5541 397.5717,812.8978 396.2517,850.2878 " fill="none" id="cri_e-to-dranet_e" style="stroke:#388E3C;stroke-width:1.0;"/><polygon fill="#388E3C" points="396.04,856.2841,400.355,847.4308,396.2164,851.2872,392.36,847.1486,396.04,856.2841" style="stroke:#388E3C;stroke-width:1.0;"/><text fill="#000000" font-family="Helvetica" font-size="11" lengthAdjust="spacing" textLength="50.7206" x="411.9529" y="793.313">NRI hook:</text><text fill="#000000" font-family="Helvetica" font-size="11" lengthAdjust="spacing" textLength="50.6326" x="411.9969" y="808.2949">move NIC</text><text fill="#000000" font-family="Helvetica" font-size="11" lengthAdjust="spacing" textLength="75.2065" x="399.71" y="823.2768">into pod netns</text></g><!--link cni_e to eth_d--><g id="link_cni_e_eth_d"><path d="M262,916.6141 C262,952.6041 262,1007.5341 262,1043.6441 " fill="none" id="cni_e-to-eth_d" style="stroke:#388E3C;stroke-width:1.0;"/><polygon fill="#388E3C" points="262,1049.6441,266,1040.6441,262,1044.6441,258,1040.6441,262,1049.6441" style="stroke:#388E3C;stroke-width:1.0;"/><text fill="#000000" font-family="Helvetica" font-size="11" lengthAdjust="spacing" textLength="33.1098" x="263" y="959.283">assign</text><text fill="#000000" font-family="Helvetica" font-size="11" lengthAdjust="spacing" textLength="32.2848" x="263.4125" y="974.2649">CNI IP</text></g><!--link dranet_e to rdma_d--><g id="link_dranet_e_rdma_d"><path d="M395,916.6141 C395,950.1941 395,999.4941 395,1036.0841 " fill="none" id="dranet_e-to-rdma_d" style="stroke:#388E3C;stroke-width:1.0;"/><polygon fill="#388E3C" points="395,1042.0841,399,1033.0841,395,1037.0841,391,1033.0841,395,1042.0841" style="stroke:#388E3C;stroke-width:1.0;"/><text fill="#000000" font-family="Helvetica" font-size="11" lengthAdjust="spacing" textLength="59.7846" x="396" y="959.283">move NIC +</text><text fill="#000000" font-family="Helvetica" font-size="11" lengthAdjust="spacing" textLength="45.3637" x="403.2104" y="974.2649">config IP</text></g><!--link sched to cri_l--><g id="link_sched_cri_l"><path d="M434.31,477.5341 C457.06,455.5841 489.87,425.3341 521,401.6541 C534.54,391.3441 544.8356,384.2758 559.1156,375.2658 " fill="none" id="sched-to-cri_l" style="stroke:#388E3C;stroke-width:1.0;"/><polygon fill="#388E3C" points="564.19,372.0641,554.444,373.4837,559.9614,374.7322,558.7129,380.2495,564.19,372.0641" style="stroke:#388E3C;stroke-width:1.0;"/><text fill="#000000" font-family="Helvetica" font-size="11" lengthAdjust="spacing" textLength="85.5244" x="522" y="429.413">RunPodSandbox</text></g><!--link cri_l to dranet_l--><g id="link_cri_l_dranet_l"><path d="M613.03,371.8141 C613.66,394.3441 617.69,425.3541 633,447.6541 C644.44,464.3041 656.9811,474.2222 674.2511,483.5522 " fill="none" id="cri_l-to-dranet_l" style="stroke:#388E3C;stroke-width:1.0;"/><polygon fill="#388E3C" points="679.53,486.4041,673.5129,478.607,675.1309,484.0275,669.7104,485.6455,679.53,486.4041" style="stroke:#388E3C;stroke-width:1.0;"/><text fill="#000000" font-family="Helvetica" font-size="11" lengthAdjust="spacing" textLength="50.7206" x="646.2429" y="414.413">NRI hook:</text><text fill="#000000" font-family="Helvetica" font-size="11" lengthAdjust="spacing" textLength="50.6326" x="646.2869" y="429.3949">move NIC</text><text fill="#000000" font-family="Helvetica" font-size="11" lengthAdjust="spacing" textLength="75.2065" x="634" y="444.3768">into pod netns</text></g><!--link cni_l to eth_p--><g id="link_cni_l_eth_p"><path d="M856.67,537.9341 C856.3,570.8141 855.7675,617.8445 855.3975,650.7445 " fill="none" id="cni_l-to-eth_p" style="stroke:#388E3C;stroke-width:1.0;"/><polygon fill="#388E3C" points="855.33,656.7441,859.431,647.7897,855.3862,651.7444,851.4315,647.6997,855.33,656.7441" style="stroke:#388E3C;stroke-width:1.0;"/><text fill="#000000" font-family="Helvetica" font-size="11" lengthAdjust="spacing" textLength="33.1098" x="857.3" y="582.373">assign</text><text fill="#000000" font-family="Helvetica" font-size="11" lengthAdjust="spacing" textLength="32.2848" x="857.7125" y="597.3549">CNI IP</text></g><!--link dranet_l to rdma_p--><g id="link_dranet_l_rdma_p"><path d="M730.17,537.9341 C730.34,568.4541 730.5773,610.3242 730.7573,643.3542 " fill="none" id="dranet_l-to-rdma_p" style="stroke:#388E3C;stroke-width:1.0;"/><polygon fill="#388E3C" points="730.79,649.3541,734.7409,640.3324,730.7628,644.3542,726.741,640.376,730.79,649.3541" style="stroke:#388E3C;stroke-width:1.0;"/><text fill="#000000" font-family="Helvetica" font-size="11" lengthAdjust="spacing" textLength="59.7846" x="731.5" y="582.373">move NIC +</text><text fill="#000000" font-family="Helvetica" font-size="11" lengthAdjust="spacing" textLength="45.3637" x="738.7104" y="597.3549">config IP</text></g><!--link rdma_p to dac--><g id="link_rdma_p_dac"><path d="M717.44,724.7641 C702.72,764.5741 681.7102,821.4062 669.0802,855.5762 " fill="none" id="rdma_p-to-dac" style="stroke:#7B1FA2;stroke-width:2.0;"/><polygon fill="#7B1FA2" points="667,861.2041,673.8722,854.1491,668.7335,856.5142,666.3684,851.3755,667,861.2041" style="stroke:#7B1FA2;stroke-width:2.0;"/><text fill="#000000" font-family="Helvetica" font-size="11" lengthAdjust="spacing" textLength="49.8296" x="697.69" y="808.313">NIXL/UCX</text></g><!--link dac to rdma_d--><g id="link_dac_rdma_d"><path d="M624.17,911.9841 C593.71,932.7541 546.96,961.6541 502,977.5241 C480.36,985.1641 470.02,972.6941 451,985.5241 C430.92,999.0641 419.3797,1016.9614 410.3997,1036.9414 " fill="none" id="dac-to-rdma_d" style="stroke:#7B1FA2;stroke-width:2.0;"/><polygon fill="#7B1FA2" points="407.94,1042.4141,415.278,1035.8449,409.9897,1037.8536,407.9811,1032.5653,407.94,1042.4141" style="stroke:#7B1FA2;stroke-width:2.0;"/><text fill="#000000" font-family="Helvetica" font-size="11" lengthAdjust="spacing" textLength="31.8778" x="568.0805" y="959.283">RDMA</text><text fill="#000000" font-family="Helvetica" font-size="11" lengthAdjust="spacing" textLength="36.6187" x="565.71" y="974.2649">KV xfer</text></g><!--link dc to GMN42--><g id="link_dc_GMN42"><path d="M119.51,169.4841 C132.75,137.1641 159.04,88.4341 201.5,72.7241 C230.57,61.9641 451.43,61.9641 480.5,72.7241 C531.65,91.6441 568.69,148.4041 585.66,179.2341 " fill="none" id="dc-GMN42" style="stroke:#000000;stroke-width:1.0;stroke-dasharray:7.0,7.0;"/></g><!--link decode_pod to GMN45--><g id="link_decode_pod_GMN45"><path d="M482,1141.6778 C482,1142.1358 482,1142.5949 482,1143.0549 C482,1143.9748 482,1144.8984 482,1145.8252 C482,1149.5323 482,1153.2902 482,1157.0673 C482,1164.6216 482,1172.2526 482,1179.7077 C482,1194.6179 482,1208.8241 482,1220.3041 " fill="none" id="decode_pod-GMN45" style="stroke:#000000;stroke-width:1.0;stroke-dasharray:7.0,7.0;"/></g><!--link rc to GMN48--><g id="link_rc_GMN48"><path d="M467.54,230.1141 C483.64,239.4441 502.49,248.6341 521,253.6841 C566.06,265.9841 897.45,253.8141 941,270.6841 C968.45,281.3141 993.63,304.4841 1009.34,321.2541 " fill="none" id="rc-GMN48" style="stroke:#000000;stroke-width:1.0;stroke-dasharray:7.0,7.0;"/></g><!--SRC=[hLVzRY8t4F-VfvXoqZNH9LS-3a8YjH8ikrTqEOh8jOfKgiYxQy2DiRUsbrnQdTI7w1FsIJgs5zW4Y8wa88MiFVERhvzdlD-OELrGo3XXeg9lcSY88Wk8IN8xKp8NQI2vLF0g2kst997IAScvYQGmGu88rHyfNrB34bBTBNN5_gHGhvSszPoayew96Km9rxIquomdKWcge5Ef66OuXVwuEwG6kYgPCqCJaoiA__xz3upx7xlGfqkMKEXgpMPYGOM1ARhz8OyfWXYgAsLqL2PYXf1_LG0_lQrWEz5vrFLxKgLK5UlzC6o4xSgNCbWY5vaKrk0-CFVP1ci7Pwsp_aEmb1WI4xtNiR0PDQB-DbRz_ApTRrYiR-7x0pue7c1fbEGmuaJGGzKtcQm-mAa2qP1aw70dQeNdHJYRL5LliJ2dEfdJDETKJSIHaHc6Chi_9NT4qMC7uFRXLT09sy7vJWIICKtLaYedZqzhQITUSW_90ztH07wAVyT5xUHJHMwSZYzHuUKZEvvO0ITQevj1U0cQSeIGIdilqsINsfXgcQk4Nd7KHiMKwKIYenZGS10Kgae_fOessG9LCvbY97_aL9j2pLlyygnw3sLABu2A57bpbD847uzVKFOIdFDDuFEDHxTfROQrxUBxWpmHVK8NKbnHiwe6djGRQlN2Mg_nM2j1Wc6JeYgTY3Sm70-mQUKp9ZpN5Dkl6Gm7cCO8YIaezobCH5b-YomkBJ2IgVVCFTxOEXGdS3TLbfUN7z7G-DCrD6ljchUqv7nnWugzNZ-CUhlKg9dN9g9UU_kkyHR_r9mQBbgjKlDuh2MoTalNHEPrxRTkZMCpB5YIBeY52EkzC3nxCMDICfCncSDHfkYKSVvoqXI86zfm4Z-JDFpPfE47aeRl9St8vsNDcY9FNqsRJ-zAXCc-bZ3rj-t6cZ3PquJHzJ9R6jjioVu7jepcznel0HomMdTItRw09etM-pY4VZV0gZExReULm5zVUf9WkCsm5RLUElOWul9Emr6FvuStGpj1JdyjHl1lfpyKO-i2gglv1dVCp2TYDU9WpWHEe4gQFDH3e8hIEzPso5NMtHAtcfrEs0nEKgBHdfL053IVvJ5d6WsdReHPYwlJSeZIynh6AgNl5QNYsDtJx45852M6IN4egC_fscthhs_vwF8u5tZcheX8O_cvMl7h3qJNoK9fsmFcKjvUJCG21xATnXE11P7EFnGJ6BCV3mymV4D60EAkc1E13G86e-gEIhXi-kwByYihy6OYi1rDsSofxGk9xmc9xmo97nGItmufUo8alYEaxAcG3cPA7- -xC286nyeeLncdnviR_OTV826O8p3eZPvITN0dyVvY36UzUjHjdCIIEwRRpc7JDhY-_Exdu1hZ9SaEiKq9hJyJWGvzHZUUToBiAyY1QWALGB7Pt82ShgwPU06zS9uX5cOcfsxrzMjOCcLoRBkuxD-cy1865gBYWM9fZ5mufFLrfdYHmFGZMwYQ4Zpm2AHPpEc5sxIZ1exi7Tk-NM4bfbEM7FkjzGK4_1pPRx6ui5wvYxDsp8dlWKtjY-D9CNWjY_2DJYEJWAGf_gStWFy1]--></g></svg>